<?xml version="1.0" standalone="no"?>
<!DOCTYPE svg PUBLIC "-//W3C//DTD SVG 20010904//EN"
 "http://www.w3.org/TR/2001/REC-SVG-20010904/DTD/svg10.dtd">
<svg version="1.0" xmlns="http://www.w3.org/2000/svg"
 width="220.000000pt" height="214.000000pt" viewBox="0 0 220.000000 214.000000"
 preserveAspectRatio="xMidYMid meet">

<g transform="translate(0.000000,214.000000) scale(0.100000,-0.100000)"
fill="#000000" stroke="none">
<path d="M1188 2083 c-33 -32 -78 -80 -101 -108 -24 -30 -13 -21 27 22 37 39
86 88 109 107 23 20 38 36 34 36 -5 0 -36 -26 -69 -57z"/>
<path d="M1275 2078 c-10 -82 -10 -261 -1 -276 4 -7 29 -11 59 -10 38 1 43 2
18 5 l-33 4 4 89 c2 48 9 94 15 102 6 7 13 43 17 81 l7 67 -40 0 -39 0 -7 -62z
m25 -108 c0 -5 -4 -10 -10 -10 -5 0 -10 5 -10 10 0 6 5 10 10 10 6 0 10 -4 10
-10z"/>
<path d="M781 2063 c2 -26 2 -26 6 -4 l5 24 17 -27 c25 -37 91 -106 150 -155
l49 -41 22 32 c18 28 19 30 2 11 -11 -13 -25 -23 -30 -23 -16 0 -159 138 -182
176 -26 41 -40 44 -39 7z"/>
<path d="M773 1950 c0 -47 2 -66 4 -42 2 23 2 61 0 85 -2 23 -4 4 -4 -43z"/>
<path d="M781 1844 c0 -11 3 -14 6 -6 3 7 2 16 -1 19 -3 4 -6 -2 -5 -13z"/>
<path d="M1522 1758 c-18 -39 -31 -72 -29 -74 2 -2 20 30 40 71 20 41 33 75
29 75 -4 -1 -22 -33 -40 -72z"/>
<path d="M1503 1813 c9 -2 23 -2 30 0 6 3 -1 5 -18 5 -16 0 -22 -2 -12 -5z"/>
<path d="M586 1779 c8 -16 17 -29 20 -29 2 0 0 9 -6 19 -7 14 -6 21 2 23 7 3
3 7 -9 10 -22 6 -22 5 -7 -23z"/>
<path d="M1428 1803 c12 -2 30 -2 40 0 9 3 -1 5 -23 4 -22 0 -30 -2 -17 -4z"/>
<path d="M628 1783 c6 -2 18 -2 25 0 6 3 1 5 -13 5 -14 0 -19 -2 -12 -5z"/>
<path d="M990 1781 c-101 -21 -185 -114 -206 -227 -4 -21 -15 -51 -25 -66 -11
-14 -19 -32 -19 -40 0 -7 7 1 16 18 18 37 51 54 105 54 72 0 119 -41 119 -105
0 -54 -43 -114 -84 -116 -18 -1 -18 -2 -3 -6 10 -3 25 1 34 9 14 11 15 10 10
-7 -23 -83 -18 -145 13 -145 9 0 22 6 28 13 15 18 42 87 34 87 -4 0 -15 -20
-25 -45 -34 -82 -67 -41 -46 57 7 29 20 69 30 88 53 98 -12 187 -128 178 -50
-4 -54 -3 -51 16 2 13 9 20 18 17 46 -10 189 -31 215 -30 17 0 -23 9 -88 19
-111 16 -150 30 -134 47 4 4 54 1 110 -6 59 -7 139 -10 187 -6 54 4 91 2 100
-4 25 -18 -6 -30 -80 -33 -61 -1 -62 -2 -15 -5 65 -5 115 4 115 22 0 28 -40
38 -123 30 -48 -4 -120 -2 -183 6 l-103 13 16 30 c52 104 153 148 275 120 121
-28 192 -95 224 -211 20 -74 32 -319 15 -309 -6 4 -11 3 -11 -1 0 -5 15 -13
32 -18 67 -20 60 -108 -10 -131 -18 -5 -30 -13 -27 -16 13 -13 -39 -121 -80
-166 -85 -95 -206 -120 -318 -67 -108 51 -141 119 -153 315 -6 113 -6 115 13
98 24 -22 76 -33 96 -22 11 6 2 9 -28 9 -47 0 -85 25 -85 55 0 17 2 17 37 -1
21 -10 44 -19 53 -18 8 0 -3 7 -25 15 -21 8 -48 23 -60 34 -20 19 -20 19 -17
-29 3 -42 1 -50 -21 -64 -14 -9 -28 -25 -32 -36 -5 -18 -8 -18 -48 -3 -56 21
-56 21 -25 46 29 23 78 84 78 98 0 14 -71 87 -106 109 l-34 21 48 24 c26 13
61 37 76 53 l28 29 -38 56 c-20 31 -39 56 -41 56 -5 0 3 -14 40 -68 l29 -44
-23 -24 c-29 -31 -37 -30 -106 6 -51 26 -63 29 -98 20 -63 -15 -192 -13 -198
4 -3 7 -1 18 4 23 6 6 4 10 -6 10 -13 0 -19 -15 -17 -38 2 -12 -40 -2 -49 12
-7 10 -8 7 -5 -11 5 -22 -7 -35 -89 -103 -52 -43 -98 -76 -104 -73 -15 9 -21
-33 -21 -150 0 -127 1 -128 77 -117 31 4 44 3 40 -4 -4 -6 1 -14 11 -18 27
-11 333 -25 351 -16 15 7 42 8 180 3 l55 -2 -28 -29 -28 -30 36 -6 c39 -8 40
-25 0 -25 -27 0 -34 -19 -6 -21 9 -1 20 -1 24 0 4 0 5 -6 2 -14 -5 -12 3 -15
40 -15 25 0 46 -5 46 -10 0 -20 80 -97 120 -115 25 -11 40 -25 40 -36 0 -16
-9 -17 -93 -12 -110 7 -132 -1 -148 -57 -7 -22 -15 -37 -20 -35 -4 3 -5 -5 -1
-17 3 -14 1 -19 -6 -14 -7 4 -10 2 -6 -7 3 -8 -7 -56 -21 -108 -42 -153 -21
-138 -189 -136 -81 2 -142 -1 -139 -6 8 -13 -40 16 -54 33 -15 18 -17 44 -3
35 6 -3 10 -1 10 5 0 6 -6 10 -13 9 -17 -3 -81 27 -97 45 -10 14 -10 16 6 16
14 0 16 2 6 9 -19 12 -172 5 -185 -8 -8 -8 9 -9 64 -5 67 6 77 4 99 -15 14
-12 40 -31 58 -41 17 -11 32 -25 32 -31 0 -34 -183 -159 -233 -159 -15 0 -27
-5 -27 -11 0 -7 11 -8 31 -4 22 5 29 4 25 -4 -12 -18 2 -12 24 11 11 12 23 18
27 15 3 -4 1 -7 -5 -7 -7 0 -12 -5 -12 -12 0 -6 3 -8 6 -5 4 3 15 0 25 -7 32
-22 105 8 136 56 14 21 24 40 22 43 -3 2 -13 -11 -24 -30 -22 -43 -30 -43 -50
-5 -15 29 -15 30 22 64 40 36 53 37 53 5 0 -11 4 -18 9 -15 5 3 66 -80 136
-184 70 -105 129 -190 131 -190 2 0 1 6 -2 13 -10 27 163 680 192 725 12 18
24 22 68 22 29 0 74 -3 100 -6 38 -6 46 -10 47 -28 0 -11 3 -16 5 -10 4 8 15
8 42 -2 49 -17 85 -17 127 0 l34 15 4 -57 3 -57 2 62 c2 74 2 74 138 76 l87 2
49 -145 c27 -80 69 -215 93 -300 24 -85 55 -188 69 -227 14 -42 21 -75 15 -78
-5 -4 -9 -11 -9 -17 0 -5 21 16 47 49 26 32 65 79 87 104 23 26 68 79 100 119
l60 72 13 -38 c7 -21 21 -46 29 -56 16 -17 17 -16 36 8 16 19 23 22 34 13 23
-19 16 -39 -13 -40 l-28 -1 25 -7 c24 -7 21 -10 -60 -96 -103 -109 -141 -156
-79 -97 25 23 49 39 54 35 4 -5 5 -3 1 4 -3 6 -2 14 3 17 5 3 11 -3 14 -13 3
-11 17 -22 36 -26 18 -4 28 -11 25 -17 -4 -7 -2 -8 5 -4 16 10 51 -3 51 -20 0
-11 16 -14 70 -14 l70 0 0 83 c0 82 -1 84 -35 117 -41 40 -42 38 -15 -31 34
-85 19 -91 -30 -14 -25 39 -68 105 -97 148 -29 43 -53 86 -53 96 0 26 53 68
102 82 23 6 62 8 87 4 31 -4 43 -3 36 3 -14 14 -104 17 -135 4 -28 -11 -35 -9
-26 7 4 6 14 7 24 4 18 -7 17 -5 -12 17 -18 13 -19 13 -12 0 4 -8 0 -6 -8 4
-13 16 -19 17 -38 7 -13 -6 -15 -9 -5 -7 9 3 17 1 17 -5 0 -6 -9 -13 -20 -16
-19 -5 -19 -6 -3 -19 15 -11 9 -12 -42 -8 -40 3 -53 1 -40 -5 11 -4 23 -7 26
-5 4 2 18 -2 32 -9 l26 -13 -65 -75 c-35 -41 -69 -73 -75 -71 -6 1 -8 -1 -5
-6 7 -12 -74 -118 -88 -114 -6 2 -8 0 -3 -4 14 -14 -43 -63 -68 -58 -13 2 -27
-1 -31 -7 -5 -8 1 -10 19 -7 l26 5 -21 -30 -22 -31 -33 103 c-18 57 -30 107
-27 112 3 5 0 9 -7 9 -7 0 -9 10 -7 25 3 13 2 22 -2 20 -9 -6 -42 113 -35 126
4 5 2 9 -3 9 -11 0 -44 109 -36 121 3 5 0 9 -5 9 -6 0 -11 7 -11 16 0 9 5 12
12 8 7 -4 8 -3 4 5 -4 6 -12 8 -18 5 -7 -5 -9 0 -6 14 4 12 2 20 -3 16 -12 -7
-11 29 1 44 7 9 7 9 -2 2 -9 -7 -19 4 -37 43 l-26 52 -67 3 -68 3 0 54 c0 77
2 81 60 77 28 -2 50 0 50 6 0 5 13 8 30 6 16 -2 32 1 35 6 4 6 -9 10 -29 10
-25 0 -38 6 -46 20 -9 17 -6 20 27 25 21 3 65 12 98 20 54 13 61 13 78 -2 10
-9 15 -23 13 -30 -4 -9 6 -13 35 -13 22 0 48 -4 58 -10 10 -5 45 -12 77 -15
38 -3 63 -11 71 -22 11 -14 18 -15 55 -4 24 7 57 19 75 27 27 11 39 11 70 0
l37 -13 -27 -7 c-34 -8 -35 -32 -2 -40 14 -4 25 -13 25 -20 0 -14 40 -30 49
-20 9 9 -51 54 -73 55 -17 0 -14 4 12 15 17 8 32 19 32 24 0 11 -7 14 -52 24
-18 4 -28 13 -28 24 0 16 7 17 73 11 39 -4 84 -10 99 -14 l28 -7 -1 130 0 131
-30 -4 c-16 -2 -29 1 -29 6 0 5 14 9 30 9 17 0 30 5 30 10 0 6 -11 10 -25 10
-19 0 -25 5 -25 21 0 17 5 20 25 17 25 -5 25 -4 25 63 l0 69 -40 0 c-42 0 -50
5 -160 110 -73 69 -88 109 -37 101 10 -2 29 49 23 63 -2 6 -7 -4 -12 -23 -6
-30 -8 -32 -20 -17 -8 12 -14 14 -19 6 -4 -6 -12 -9 -19 -7 -9 4 -11 -63 -8
-275 5 -306 -1 -358 -42 -358 -12 0 -28 -4 -36 -10 -9 -6 -17 -5 -22 3 -13 20
-9 25 25 33 32 7 32 7 -23 21 -52 13 -126 19 -282 22 -38 0 -68 5 -68 10 0 14
155 61 202 61 l43 1 -50 21 c-91 39 -195 118 -156 118 5 0 12 7 15 16 4 12 2
15 -9 10 -8 -3 -15 -2 -15 2 0 5 31 23 70 42 38 18 68 35 66 37 -4 4 -146 -66
-175 -86 -11 -7 6 -24 70 -71 46 -34 86 -64 89 -67 7 -7 -21 -21 -87 -44 -35
-11 -65 -25 -68 -29 -3 -5 3 -27 15 -49 11 -22 20 -45 20 -50 0 -6 -27 -8 -69
-6 -39 3 -72 1 -76 -5 -3 -5 1 -26 10 -46 8 -20 15 -38 15 -40 0 -8 -69 -4
-74 4 -7 12 44 136 58 141 6 2 23 17 38 32 37 36 36 73 0 108 -28 25 -29 30
-35 151 -9 198 -42 287 -129 350 -62 45 -174 74 -238 61z m974 -273 c6 -44 5
-48 -14 -48 -18 0 -20 6 -20 62 0 54 2 60 14 48 8 -8 17 -36 20 -62z m-1494
47 c-29 -17 -50 -19 -50 -6 0 5 10 12 23 14 44 8 52 6 27 -8z m90 5 c0 -5 -7
-10 -15 -10 -8 0 -15 5 -15 10 0 6 7 10 15 10 8 0 15 -4 15 -10z m-399 -87
c-28 -35 -142 -112 -140 -95 0 10 106 92 118 92 6 0 18 11 27 25 9 14 19 24
21 21 3 -3 -9 -22 -26 -43z m1792 -65 c-3 -16 -9 -28 -14 -28 -11 0 -12 53 -2
64 12 12 22 -9 16 -36z m227 18 c0 -11 -19 -15 -25 -6 -3 5 1 10 9 10 9 0 16
-2 16 -4z m-222 -220 c1 -59 -3 -108 -8 -111 -6 -4 -10 37 -10 110 0 64 4 114
9 111 5 -3 9 -53 9 -110z m26 89 c3 -8 1 -15 -4 -15 -6 0 -10 7 -10 15 0 8 2
15 4 15 2 0 6 -7 10 -15z m-7 -57 c-3 -8 -6 -5 -6 6 -1 11 2 17 5 13 3 -3 4
-12 1 -19z m-1221 -117 c-13 -5 -46 37 -46 60 0 10 10 29 23 42 l22 22 5 -60
c3 -33 1 -62 -4 -64z m1279 34 c3 -30 11 -57 16 -61 5 -3 17 13 27 35 20 48
36 48 40 1 4 -40 -9 -50 -70 -50 -70 0 -106 20 -57 33 14 4 20 13 19 29 -7 82
15 94 25 13z m146 -5 c6 0 7 -4 4 -10 -10 -16 -45 -12 -45 6 0 11 5 14 16 10
9 -3 20 -6 25 -6z m-1409 -97 c3 -26 9 -56 13 -65 6 -15 2 -18 -25 -18 -27 0
-31 3 -25 18 4 9 10 27 12 40 5 19 1 22 -26 22 -37 0 -37 2 -9 40 30 41 54 26
60 -37z m1418 41 c0 -2 -11 -4 -25 -4 -14 0 -25 4 -25 9 0 4 11 6 25 3 14 -2
25 -6 25 -8z m-405 -54 c3 -5 -1 -10 -10 -10 -9 0 -13 5 -10 10 3 6 8 10 10
10 2 0 7 -4 10 -10z m-40 -39 c3 -5 1 -12 -5 -16 -5 -3 -10 1 -10 9 0 18 6 21
15 7z m-553 -173 c-7 -7 -12 -8 -12 -2 0 14 12 26 19 19 2 -3 -1 -11 -7 -17z
m-26 -23 c9 -38 -1 -53 -46 -66 -33 -10 -51 -10 -88 0 -56 15 -63 20 -56 47 5
18 13 20 67 20 34 0 71 5 82 12 29 17 34 15 41 -13z m833 -516 c-5 -10 -14
-21 -21 -25 -27 -17 -61 83 -38 111 10 12 16 8 40 -27 21 -31 26 -47 19 -59z
m-1789 14 c0 -18 -39 -16 -46 1 -3 8 0 25 6 37 l13 22 13 -24 c7 -13 13 -30
14 -36z m324 15 c-6 -10 -5 -10 7 -1 16 13 59 7 59 -9 0 -16 -31 -132 -38
-143 -4 -5 -5 -18 -3 -29 2 -12 -1 -16 -10 -11 -8 5 -10 4 -5 -4 4 -6 4 -21 0
-33 l-6 -21 -19 24 c-17 22 -17 24 -1 31 14 5 13 7 -4 7 -15 1 -37 23 -71 74
-67 97 -76 114 -58 114 8 0 12 -4 9 -9 -3 -4 2 -8 11 -8 10 0 13 5 9 13 -5 8
-2 8 9 -2 10 -7 17 -9 17 -3 0 6 16 8 39 6 22 -3 42 0 46 6 3 5 8 10 11 10 3
0 2 -6 -2 -12z m-387 -22 c1 -12 -1 -15 -4 -8 -3 6 -8 10 -12 8 -4 -3 -8 1 -8
8 0 22 23 14 24 -8z m1927 -98 c6 -4 -4 -8 -23 -8 -34 0 -34 0 -15 21 13 15
20 17 23 7 2 -7 9 -16 15 -20z m9 -25 c-7 -2 -21 -2 -30 0 -10 3 -4 5 12 5 17
0 24 -2 18 -5z"/>
<path d="M693 1773 c15 -2 39 -2 55 0 15 2 2 4 -28 4 -30 0 -43 -2 -27 -4z"/>
<path d="M1896 1745 c-3 -9 -6 -22 -5 -28 0 -7 5 -1 10 12 5 13 8 26 5 28 -2
2 -6 -3 -10 -12z"/>
<path d="M620 1720 c6 -11 13 -20 16 -20 2 0 0 9 -6 20 -6 11 -13 20 -16 20
-2 0 0 -9 6 -20z"/>
<path d="M1457 1615 c-9 -20 -17 -41 -17 -48 0 -7 29 -27 65 -45 36 -17 65
-30 65 -27 0 2 -19 14 -42 26 -24 12 -50 31 -60 42 -15 19 -15 24 -1 50 8 16
13 31 11 33 -3 2 -12 -12 -21 -31z"/>
<path d="M1950 1625 c0 -8 4 -15 10 -15 5 0 7 7 4 15 -4 8 -8 15 -10 15 -2 0
-4 -7 -4 -15z"/>
<path d="M1143 1520 c56 -10 84 -29 102 -65 20 -43 19 -80 -2 -116 -22 -38
-62 -53 -125 -47 -40 4 -57 11 -75 32 -46 54 -23 161 41 186 12 5 15 9 6 9
-40 1 -80 -60 -80 -121 0 -69 37 -109 108 -116 30 -2 64 1 82 8 36 15 70 67
70 106 0 68 -68 135 -135 133 -28 -1 -27 -2 8 -9z"/>
<path d="M24 1466 c-3 -8 -4 -23 -2 -33 3 -11 6 -6 9 15 6 34 2 42 -7 18z"/>
<path d="M1621 1466 c2 -2 15 -9 29 -15 24 -11 24 -11 6 3 -16 13 -49 24 -35
12z"/>
<path d="M732 1410 c0 -14 2 -19 5 -12 2 6 2 18 0 25 -3 6 -5 1 -5 -13z"/>
<path d="M852 1401 c2 -7 7 -12 11 -12 12 1 9 15 -3 20 -7 2 -11 -2 -8 -8z"/>
<path d="M1135 1390 c3 -5 10 -10 16 -10 5 0 9 5 9 10 0 6 -7 10 -16 10 -8 0
-12 -4 -9 -10z"/>
<path d="M1244 1262 c-8 -12 -31 -19 -75 -23 l-64 -6 56 -1 c43 -2 63 3 80 17
13 11 22 22 19 25 -3 3 -11 -3 -16 -12z"/>
<path d="M912 1038 c-20 -20 -14 -36 18 -43 55 -12 88 13 58 43 -15 15 -61 15
-76 0z"/>
<path d="M880 970 c0 -15 30 -40 57 -46 25 -7 72 19 81 45 2 7 -7 1 -22 -13
-32 -33 -60 -33 -91 -1 -14 13 -25 20 -25 15z"/>
<path d="M1330 890 c-34 -7 -34 -7 13 -9 26 0 47 4 47 9 0 11 -8 11 -60 0z"/>
<path d="M20 781 c-20 -6 -15 -8 29 -13 36 -4 59 -11 68 -24 7 -10 13 -12 13
-6 0 18 82 12 98 -7 8 -9 11 -10 7 -3 -5 9 11 12 64 12 58 0 70 -3 74 -17 4
-16 5 -16 6 1 1 14 6 17 24 12 129 -37 201 -48 167 -26 -8 5 -28 10 -45 10
-16 0 -52 7 -80 16 -27 8 -97 17 -155 20 -92 4 -155 12 -225 28 -11 2 -31 1
-45 -3z"/>
<path d="M144 726 c-4 -10 -15 -12 -39 -6 -25 6 -35 4 -39 -6 -3 -8 -12 -11
-21 -8 -11 5 -14 2 -9 -12 4 -14 3 -16 -4 -5 -5 7 -15 10 -21 7 -8 -5 -7 -11
1 -20 15 -16 77 0 85 21 4 11 8 10 17 -3 12 -15 15 -15 44 0 17 9 39 16 48 16
24 0 13 9 -25 20 -24 7 -33 6 -37 -4z"/>
<path d="M1736 732 c-11 -18 7 -62 25 -62 6 0 8 4 5 9 -4 5 -3 11 1 14 5 2 3
2 -4 1 -13 -3 -26 23 -17 37 3 5 3 9 0 9 -3 0 -7 -4 -10 -8z"/>
<path d="M1910 720 c6 -11 13 -20 16 -20 2 0 0 9 -6 20 -6 11 -13 20 -16 20
-2 0 0 -9 6 -20z"/>
<path d="M1450 719 c0 -5 5 -7 10 -4 6 3 10 8 10 11 0 2 -4 4 -10 4 -5 0 -10
-5 -10 -11z"/>
<path d="M1806 721 c-20 -7 -16 -13 15 -24 13 -4 16 -1 12 14 -3 10 -6 19 -7
18 0 0 -10 -4 -20 -8z"/>
<path d="M953 680 c0 -25 2 -35 4 -22 2 12 2 32 0 45 -2 12 -4 2 -4 -23z"/>
<path d="M1855 710 c28 -12 45 -12 45 0 0 6 -15 10 -32 9 -28 0 -30 -2 -13 -9z"/>
<path d="M1520 697 c0 -4 20 -7 44 -6 25 2 43 6 40 11 -6 10 -84 6 -84 -5z"/>
<path d="M560 679 c0 -6 7 -9 15 -5 8 3 15 2 15 -3 0 -12 45 -22 64 -15 35 14
15 31 -39 33 -36 1 -55 -2 -55 -10z"/>
<path d="M1670 680 c-8 -5 -10 -10 -5 -10 6 0 17 5 25 10 8 5 11 10 5 10 -5 0
-17 -5 -25 -10z"/>
<path d="M896 645 c-9 -26 -7 -32 5 -12 6 10 9 21 6 23 -2 3 -7 -2 -11 -11z"/>
<path d="M1694 651 c4 -6 1 -11 -6 -11 -9 0 -9 -3 2 -10 20 -13 77 -13 85 0 4
6 -5 10 -20 10 -15 0 -36 5 -47 11 -15 8 -19 8 -14 0z"/>
<path d="M1758 653 c6 -2 18 -2 25 0 6 3 1 5 -13 5 -14 0 -19 -2 -12 -5z"/>
<path d="M2134 640 c0 -13 4 -16 10 -10 7 7 7 13 0 20 -6 6 -10 3 -10 -10z"/>
<path d="M1505 630 c-3 -6 1 -7 9 -4 18 7 21 14 7 14 -6 0 -13 -4 -16 -10z"/>
<path d="M943 570 c0 -36 2 -50 4 -32 2 17 2 47 0 65 -2 17 -4 3 -4 -33z"/>
<path d="M2086 587 c3 -10 9 -15 12 -12 3 3 0 11 -7 18 -10 9 -11 8 -5 -6z"/>
<path d="M1164 450 c0 -74 1 -105 3 -67 2 37 2 97 0 135 -2 37 -3 6 -3 -68z"/>
<path d="M278 563 c6 -2 18 -2 25 0 6 3 1 5 -13 5 -14 0 -19 -2 -12 -5z"/>
<path d="M840 529 c-12 -23 -20 -43 -18 -45 3 -2 14 17 26 41 27 56 20 60 -8
4z"/>
<path d="M1262 540 c0 -14 2 -19 5 -12 2 6 2 18 0 25 -3 6 -5 1 -5 -13z"/>
<path d="M1331 524 c0 -11 3 -14 6 -6 3 7 2 16 -1 19 -3 4 -6 -2 -5 -13z"/>
<path d="M1271 494 c0 -11 3 -14 6 -6 3 7 2 16 -1 19 -3 4 -6 -2 -5 -13z"/>
<path d="M1740 500 c-13 -8 -13 -10 2 -10 9 0 20 5 23 10 8 13 -5 13 -25 0z"/>
<path d="M25 480 c-17 -4 -23 -8 -15 -9 13 -1 13 -2 0 -11 -8 -5 -12 -12 -8
-15 3 -3 19 5 34 19 16 14 27 25 24 25 -3 -1 -18 -5 -35 -9z"/>
<path d="M119 461 c-16 -16 -29 -35 -29 -42 0 -15 10 -6 24 23 6 13 27 28 46
35 28 9 30 12 12 12 -13 1 -36 -12 -53 -28z"/>
<path d="M933 415 c0 -44 2 -61 4 -37 2 23 2 59 0 80 -2 20 -4 1 -4 -43z"/>
<path d="M1351 454 c0 -11 3 -14 6 -6 3 7 2 16 -1 19 -3 4 -6 -2 -5 -13z"/>
<path d="M1281 444 c0 -11 3 -14 6 -6 3 7 2 16 -1 19 -3 4 -6 -2 -5 -13z"/>
<path d="M762 420 c0 -19 2 -27 5 -17 2 9 2 25 0 35 -3 9 -5 1 -5 -18z"/>
<path d="M796 435 c-9 -26 -7 -32 5 -12 6 10 9 21 6 23 -2 3 -7 -2 -11 -11z"/>
<path d="M2071 404 c13 -17 29 -40 36 -50 7 -11 12 -13 12 -6 1 7 -15 29 -35
50 -30 30 -32 31 -13 6z"/>
<path d="M1291 394 c0 -11 3 -14 6 -6 3 7 2 16 -1 19 -3 4 -6 -2 -5 -13z"/>
<path d="M777 386 c-3 -8 6 -24 21 -37 l27 -24 -21 25 c-12 14 -19 31 -17 38
3 6 3 12 0 12 -3 0 -7 -6 -10 -14z"/>
<path d="M1375 310 c11 -218 18 -314 22 -302 3 6 9 12 14 12 6 0 7 -5 4 -10
-4 -6 3 -9 17 -7 13 2 23 9 23 15 0 6 3 14 8 18 4 4 7 -2 7 -14 0 -12 5 -22
10 -22 13 0 10 11 -56 230 l-53 175 4 -95z m65 -182 c0 -5 -8 -8 -19 -8 -21 0
-31 41 -30 125 l0 50 24 -80 c13 -44 24 -83 25 -87z m-13 -40 c-3 -8 -6 -5 -6
6 -1 11 2 17 5 13 3 -3 4 -12 1 -19z"/>
<path d="M56 361 c-10 -11 -28 -22 -40 -24 -20 -4 -20 -4 0 -6 11 0 31 10 44
24 13 14 21 25 18 25 -3 0 -13 -9 -22 -19z"/>
<path d="M1301 350 c-1 -8 -21 -35 -47 -61 -42 -43 -44 -47 -27 -59 15 -12 16
-12 5 0 -10 12 -4 22 34 61 26 26 44 53 41 61 -4 10 -6 10 -6 -2z"/>
<path d="M840 295 c13 -14 26 -25 28 -25 3 0 -5 11 -18 25 -13 14 -26 25 -28
25 -3 0 5 -11 18 -25z"/>
<path d="M923 230 c0 -47 2 -66 4 -42 2 23 2 61 0 85 -2 23 -4 4 -4 -43z"/>
<path d="M750 269 c0 -19 -13 -86 -29 -149 -16 -63 -28 -116 -27 -118 2 -1 11
1 20 4 14 5 15 9 4 15 -9 6 -10 9 -1 9 7 0 10 6 7 13 -2 7 0 31 5 52 9 38 9
37 11 -30 2 -49 5 -24 11 80 5 82 6 151 4 154 -3 2 -5 -11 -5 -30z"/>
<path d="M1154 145 c0 -82 2 -115 3 -72 2 43 2 110 0 150 -1 40 -3 5 -3 -78z"/>
<path d="M171 264 c-1 -7 30 -54 68 -105 71 -96 81 -116 54 -111 -10 2 -12 -1
-7 -10 6 -11 5 -11 -9 0 -14 12 -16 11 -14 -6 1 -14 7 -19 19 -17 10 2 18 0
18 -4 0 -5 14 -8 30 -7 17 0 30 2 30 4 0 3 -90 129 -138 193 -15 20 -32 45
-39 55 -6 11 -12 14 -12 8z"/>
<path d="M829 213 l-24 -28 28 24 c25 23 32 31 24 31 -2 0 -14 -12 -28 -27z"/>
<path d="M1240 206 c0 -2 8 -10 18 -17 15 -13 16 -12 3 4 -13 16 -21 21 -21
13z"/>
<path d="M1291 145 c9 -11 19 -27 22 -35 5 -13 6 -13 6 1 1 9 -9 24 -21 35
-23 19 -23 19 -7 -1z"/>
<path d="M121 114 c0 -11 3 -14 6 -6 3 7 2 16 -1 19 -3 4 -6 -2 -5 -13z"/>
<path d="M913 55 c0 -33 2 -45 4 -27 2 18 2 45 0 60 -2 15 -4 0 -4 -33z"/>
<path d="M771 84 c0 -11 3 -14 6 -6 3 7 2 16 -1 19 -3 4 -6 -2 -5 -13z"/>
<path d="M232 74 c2 -16 7 -20 22 -16 15 4 17 7 6 10 -8 3 -18 10 -22 16 -4 6
-6 1 -6 -10z"/>
<path d="M1301 74 c0 -11 3 -14 6 -6 3 7 2 16 -1 19 -3 4 -6 -2 -5 -13z"/>
<path d="M781 44 c0 -11 3 -14 6 -6 3 7 2 16 -1 19 -3 4 -6 -2 -5 -13z"/>
<path d="M1291 34 c0 -11 3 -14 6 -6 3 7 2 16 -1 19 -3 4 -6 -2 -5 -13z"/>
<path d="M1875 20 c-3 -6 1 -7 9 -4 18 7 21 14 7 14 -6 0 -13 -4 -16 -10z"/>
</g>
</svg>
